<?xml version="1.0" standalone="no"?>
<!DOCTYPE svg PUBLIC "-//W3C//DTD SVG 20010904//EN"
 "http://www.w3.org/TR/2001/REC-SVG-20010904/DTD/svg10.dtd">
<svg version="1.0" xmlns="http://www.w3.org/2000/svg"
 width="415.000000pt" height="495.000000pt" viewBox="0 0 415.000000 495.000000"
 preserveAspectRatio="xMidYMid meet">

<g transform="translate(0.000000,495.000000) scale(0.100000,-0.100000)"
fill="#000000" stroke="none">
<path d="M0 4900 c0 -40 3 -48 15 -44 10 4 15 0 15 -15 0 -12 -7 -24 -15 -27
-19 -8 -21 -100 -2 -107 10 -4 10 -6 0 -6 -7 -1 -13 -10 -13 -21 0 -13 5 -18
15 -14 8 4 15 1 15 -5 0 -6 -7 -11 -15 -11 -13 0 -15 -97 -15 -815 0 -537 3
-815 10 -815 6 0 10 -7 10 -15 0 -8 -4 -15 -10 -15 -5 0 -10 -19 -10 -42 0
-39 1 -40 15 -22 14 18 14 18 15 -8 0 -17 6 -28 18 -31 9 -3 2 -5 -15 -6 l-33
-1 0 -250 c0 -194 3 -250 13 -250 8 0 11 14 8 46 -2 35 0 45 10 42 7 -2 16
-17 21 -33 4 -16 18 -39 32 -52 l25 -22 6 32 c4 17 12 37 17 44 5 7 7 17 3 23
-3 5 1 10 9 10 9 0 16 -9 16 -20 0 -10 6 -23 14 -27 21 -13 38 -52 30 -75 -4
-14 -3 -18 5 -14 6 4 17 1 24 -6 16 -15 11 -87 -7 -94 -7 -3 -12 -39 -14 -98
-2 -100 -25 -240 -41 -260 -6 -7 -13 -31 -17 -54 -6 -38 -28 -72 -39 -60 -10
10 17 109 31 115 29 11 13 20 -29 17 -42 -4 -43 -3 -56 32 -11 30 -11 38 0 45
10 7 11 11 3 17 -7 4 -19 24 -27 45 -9 20 -21 37 -26 37 -8 0 -11 -192 -11
-615 l0 -615 36 0 c22 0 33 -4 29 -10 -4 -6 -14 -10 -23 -9 -43 4 -42 8 -42
-222 l0 -221 37 7 c21 4 41 12 45 18 4 6 11 8 15 3 4 -4 0 -14 -10 -21 -12 -8
-14 -15 -8 -20 6 -3 11 -15 11 -26 0 -16 -7 -19 -45 -19 -33 0 -45 -4 -45 -15
0 -9 9 -15 23 -15 55 -1 212 -12 215 -15 2 -2 1 -8 -3 -14 -7 -13 -144 -15
-163 -3 -7 5 -26 7 -42 4 l-30 -4 0 -82 0 -81 97 0 c54 0 158 -2 232 -4 136
-3 157 2 144 36 -3 7 -1 19 5 26 6 6 11 17 11 22 1 10 51 16 51 6 0 -3 -11
-19 -24 -36 -22 -27 -22 -31 -7 -42 26 -20 51 -16 51 8 0 12 8 38 18 58 11 20
27 54 36 76 10 22 22 48 27 58 11 21 -16 36 -33 19 -7 -7 -18 -7 -34 0 -25 11
-32 42 -14 53 6 4 8 16 4 27 -4 14 -2 18 5 14 6 -4 11 -20 11 -35 0 -28 2 -29
49 -28 44 1 51 4 72 36 30 43 111 108 164 131 60 26 180 43 250 37 59 -6 185
-58 185 -77 0 -11 25 -20 96 -35 93 -20 301 -124 348 -174 21 -23 43 -41 48
-41 5 0 47 -25 93 -55 45 -30 86 -55 88 -55 3 0 23 -10 44 -22 21 -13 76 -40
123 -61 l84 -37 553 0 c542 0 553 0 553 20 0 31 -22 71 -37 65 -7 -3 -20 -8
-28 -11 -9 -4 -15 -1 -15 6 0 9 -12 11 -40 7 -36 -5 -40 -3 -41 16 0 12 -3 16
-6 10 -7 -18 -43 -16 -43 2 0 8 -12 17 -27 21 -59 13 -93 26 -127 49 -19 13
-43 23 -53 22 -40 -3 -173 81 -173 110 0 5 -13 20 -30 35 -18 15 -30 36 -30
50 0 24 -16 48 -32 48 -4 0 -8 -7 -8 -15 0 -24 -18 -17 -32 13 -12 24 -18 27
-59 24 -34 -3 -51 1 -65 15 -15 15 -17 15 -12 2 6 -15 -8 -16 -128 -14 -89 1
-134 -2 -134 -9 0 -6 -4 -5 -9 3 -6 9 -18 11 -39 6 -23 -5 -33 -2 -41 12 -8
14 -14 16 -28 7 -19 -12 -63 1 -63 18 0 5 -15 1 -32 -8 -40 -21 -88 -24 -88
-6 0 9 -16 12 -60 10 -34 -2 -64 2 -68 7 -9 13 -72 17 -72 5 0 -4 5 -10 12
-12 9 -3 9 -6 0 -12 -7 -4 -12 -3 -12 3 0 6 -17 13 -37 17 -21 4 -42 10 -48
14 -12 9 -72 21 -100 20 -11 0 -38 0 -60 0 -30 0 -36 -2 -25 -10 13 -8 12 -10
-4 -10 -12 0 -16 -5 -13 -15 9 -22 -13 -29 -27 -9 -7 9 -17 14 -22 11 -6 -3
-16 -2 -24 3 -9 6 -20 4 -30 -4 -13 -12 -20 -11 -47 3 -30 17 -31 18 -13 33
16 15 20 15 40 1 16 -11 25 -12 33 -4 8 8 7 11 -3 11 -7 0 -22 7 -32 17 -17
15 -20 15 -53 -2 -38 -21 -60 -13 -29 10 18 14 18 14 0 15 -12 0 -16 5 -13 15
5 11 0 13 -22 9 -26 -6 -27 -4 -23 30 3 22 10 36 18 36 8 0 14 7 14 15 0 8 -5
15 -10 15 -24 0 76 101 122 125 46 23 124 34 167 23 61 -15 142 -39 236 -70
50 -17 115 -37 145 -45 30 -7 71 -19 90 -24 75 -23 465 -100 676 -133 45 -8
95 -20 110 -29 16 -9 52 -26 79 -38 28 -13 61 -31 75 -40 14 -9 54 -28 90 -42
36 -14 119 -51 185 -82 268 -125 335 -167 335 -207 0 -10 3 -18 8 -18 14 0 31
-74 20 -88 -6 -7 -8 -16 -4 -19 4 -4 11 -2 15 5 5 9 11 5 21 -13 12 -23 19
-25 83 -25 39 0 67 3 64 7 -12 11 15 33 42 34 23 2 24 2 4 6 -13 3 -36 -5 -52
-16 -29 -21 -64 -30 -45 -12 36 34 94 54 175 59 97 5 141 -5 207 -49 29 -20
56 -29 82 -29 l40 0 0 394 c0 356 -2 395 -16 400 -10 4 -24 0 -33 -8 -28 -24
-58 -29 -65 -10 -9 23 -6 24 58 31 l56 6 0 468 c0 410 -2 469 -15 469 -20 0
-19 17 0 28 13 7 15 25 13 98 l-3 89 -64 -4 c-50 -2 -62 0 -59 10 3 8 22 15
45 17 36 3 43 7 52 34 13 38 7 48 -29 48 -19 0 -33 7 -40 19 -14 28 -13 31 16
31 15 0 23 4 19 10 -4 6 -15 8 -26 5 -15 -5 -19 -1 -19 14 0 13 6 21 16 21 14
0 15 2 3 17 -13 15 -14 15 -17 0 -2 -10 -10 -17 -17 -17 -8 0 -17 -9 -20 -20
-8 -26 -25 -26 -25 0 0 11 5 20 11 20 10 0 39 24 39 33 0 11 -33 17 -44 8 -6
-5 -21 -12 -33 -15 -17 -6 -23 -3 -23 8 0 19 -45 50 -59 42 -5 -4 -12 -2 -16
4 -3 5 -20 10 -37 10 -26 0 -30 3 -25 22 8 28 -9 48 -39 48 -23 0 -33 -15 -14
-22 5 -2 2 -24 -7 -53 -19 -60 -19 -59 -33 -50 -8 5 -8 10 0 20 8 9 8 15 0 20
-6 3 -7 12 -3 18 16 25 13 47 -6 47 -16 0 -19 -7 -17 -40 1 -22 -1 -40 -6 -40
-4 0 -8 5 -8 10 0 6 -13 10 -30 10 -39 0 -39 17 1 25 36 8 28 20 -20 32 -39
10 -54 33 -22 33 12 0 21 6 21 15 0 17 -16 20 -25 6 -7 -12 -49 -7 -90 10 -22
9 -25 13 -13 16 9 2 19 11 22 19 5 12 1 12 -23 -2 -23 -14 -33 -15 -44 -6 -11
10 -17 9 -27 -3 -7 -9 -19 -14 -27 -11 -8 3 -18 -5 -25 -20 -7 -15 -17 -23
-26 -19 -7 3 -19 5 -25 5 -6 0 -4 6 5 12 9 8 20 42 27 83 10 69 18 112 80 485
17 102 45 253 61 335 34 166 42 214 65 360 9 55 18 111 21 125 11 61 66 420
71 463 3 26 8 47 13 47 4 0 16 -29 25 -65 10 -37 23 -64 29 -62 12 5 13 20 2
55 -10 31 12 28 24 -4 6 -14 10 -46 10 -72 0 -46 0 -46 16 -23 12 17 15 35 10
67 -5 42 -5 43 14 26 11 -9 20 -22 20 -30 0 -7 5 -10 10 -7 6 3 10 20 10 37 0
21 4 29 13 25 10 -4 13 2 9 20 -3 18 0 25 15 29 20 6 20 6 -2 52 -24 49 -22
81 3 44 16 -25 42 -19 35 9 -4 13 0 19 11 19 9 0 13 6 10 14 -3 8 -1 17 5 21
15 9 14 25 -2 25 -8 0 -13 13 -13 34 0 24 4 32 13 29 16 -6 16 2 1 30 -17 30
-38 90 -33 95 2 2 18 -10 35 -28 23 -23 29 -35 21 -43 -15 -15 -14 -27 4 -27
9 0 12 -6 9 -15 -4 -8 -1 -15 6 -15 6 0 8 -5 5 -11 -4 -6 0 -16 9 -22 17 -13
21 -38 13 -107 -2 -25 -2 -34 0 -20 3 14 10 31 16 38 6 8 10 32 8 53 -1 23 2
39 8 39 6 0 11 14 11 30 0 17 5 30 10 30 6 0 10 19 10 43 0 23 5 49 10 57 7
11 10 3 10 -29 0 -34 3 -42 15 -37 8 3 15 1 15 -4 0 -6 -9 -10 -20 -10 -13 0
-20 -7 -20 -19 0 -11 -5 -23 -10 -26 -13 -8 -13 -55 0 -55 6 0 10 5 10 11 0 6
6 9 14 6 11 -4 14 2 14 22 -1 34 8 51 28 51 14 0 14 -13 -3 -72 -3 -12 1 -18
11 -18 12 0 15 -12 13 -65 -2 -36 1 -71 5 -78 4 -6 8 135 8 316 l0 327 -1965
0 -1966 0 -8 -22 -8 -23 -7 23 c-4 12 -13 22 -20 22 -10 0 -11 -8 -3 -40 12
-44 33 -59 42 -29 9 27 25 24 25 -6 0 -14 5 -25 10 -25 6 0 10 13 10 28 0 36
9 45 27 30 11 -9 17 -9 24 3 7 11 9 9 9 -8 0 -13 5 -23 10 -23 6 0 10 -5 10
-12 0 -9 -3 -9 -12 0 -19 19 -28 14 -44 -23 -8 -19 -20 -35 -28 -35 -15 0 -20
-56 -5 -65 5 -4 9 -15 9 -26 0 -13 7 -19 21 -19 17 0 20 4 15 24 -7 29 -1 34
48 38 21 1 40 6 42 10 7 11 34 10 34 -2 0 -5 -7 -10 -15 -10 -8 0 -15 -6 -15
-14 0 -26 21 -29 44 -7 27 25 36 26 36 5 0 -14 3 -14 15 -4 8 7 15 18 15 24 0
12 35 38 43 30 6 -6 -32 -80 -49 -95 -18 -15 -18 -29 0 -29 8 0 18 -10 22 -22
6 -20 8 -20 19 -5 7 9 21 17 32 17 12 0 28 11 37 25 15 23 15 25 -4 35 -11 6
-25 8 -30 5 -14 -9 -12 9 2 23 16 16 28 15 28 -3 0 -8 5 -15 11 -15 13 0 44
-30 45 -44 0 -6 -5 -21 -13 -33 -18 -31 -16 -43 7 -43 15 0 20 7 20 25 0 27 9
32 28 13 16 -16 16 -80 0 -96 -15 -15 -31 -16 -22 0 5 8 2 9 -9 5 -9 -3 -19
-2 -22 2 -3 5 -14 7 -26 4 -15 -4 -22 0 -26 16 -3 11 -10 21 -15 21 -14 0 -47
-42 -48 -61 0 -24 -19 -35 -67 -43 -40 -6 -43 -5 -40 15 2 12 11 27 20 34 15
11 14 13 -9 24 -15 6 -29 9 -33 5 -3 -4 0 -9 7 -11 14 -6 16 -33 2 -33 -6 0
-14 10 -19 23 -12 29 -79 97 -97 97 -23 0 -64 23 -58 32 7 11 -15 58 -28 58
-4 0 -8 -6 -8 -13 0 -16 -32 -47 -48 -47 -7 0 -12 6 -12 14 0 8 -5 16 -11 18
-8 3 -6 14 5 36 15 30 14 37 -7 33 -5 -1 -5 9 -1 21 6 21 5 21 -10 9 -12 -10
-20 -11 -28 -3 -7 7 -5 14 9 23 12 7 18 19 16 29 -3 10 2 20 10 23 7 3 14 19
15 36 l1 31 -70 0 -69 0 0 -50z m80 20 c0 -5 -5 -10 -11 -10 -5 0 -7 5 -4 10
3 6 8 10 11 10 2 0 4 -4 4 -10z m300 0 c0 -5 -4 -10 -10 -10 -5 0 -10 5 -10
10 0 6 5 10 10 10 6 0 10 -4 10 -10z m2948 -184 c5 -3 7 -17 4 -32 -5 -26 -5
-25 -24 15 -10 23 -16 47 -12 53 5 7 10 4 15 -9 4 -12 12 -24 17 -27z m576 4
c7 -24 6 -24 -8 -6 -9 11 -16 27 -16 35 0 21 16 2 24 -29z m-3107 -11 c10 -26
9 -34 -2 -46 -21 -20 -19 -34 5 -40 26 -7 26 -44 1 -67 -16 -15 -20 -15 -31
-1 -10 12 -9 16 5 21 16 6 15 9 -6 25 -16 13 -20 21 -13 26 6 5 11 17 11 28
-1 48 4 85 11 85 4 0 13 -14 19 -31z m3210 -11 c-3 -7 -5 -2 -5 12 0 14 2 19
5 13 2 -7 2 -19 0 -25z m-37 -20 c0 -14 -18 -9 -24 8 -11 28 -6 39 9 20 8 -11
15 -23 15 -28z m-3899 -1 c-13 -13 -26 -3 -16 12 3 6 11 8 17 5 6 -4 6 -10 -1
-17z m899 4 c15 -30 8 -86 -12 -86 -9 0 -20 -4 -24 -8 -4 -4 0 -7 9 -7 26 0
20 -19 -10 -31 -36 -13 -46 1 -28 39 12 22 21 29 33 25 14 -5 15 -4 6 8 -13
15 -7 79 7 79 4 0 13 -9 19 -19z m-97 -22 c3 -12 10 -18 16 -15 5 4 12 2 16
-4 3 -5 -3 -10 -14 -10 -17 0 -21 -6 -21 -35 0 -19 -4 -35 -9 -35 -12 0 -25
84 -17 105 8 21 23 19 29 -6z m3161 -13 c-6 -16 -8 -17 -16 -2 -11 19 0 42 13
29 6 -6 7 -18 3 -27z m-74 -42 c0 -8 -4 -12 -10 -9 -5 3 -10 10 -10 16 0 5 5
9 10 9 6 0 10 -7 10 -16z m-695 -4 c3 -6 -1 -7 -9 -4 -18 7 -21 14 -7 14 6 0
13 -4 16 -10z m-3235 -30 c0 -5 -2 -10 -4 -10 -3 0 -8 5 -11 10 -3 6 -1 10 4
10 6 0 11 -4 11 -10z m4000 1 c0 -20 -13 -41 -21 -35 -15 9 -10 44 6 44 8 0
15 -4 15 -9z m-3666 -30 c8 -12 -31 -44 -43 -36 -6 3 -11 15 -11 26 0 14 7 19
24 19 14 0 27 -4 30 -9z m2944 -23 c5 -39 -20 -36 -35 3 -11 28 -10 30 10 27
16 -2 23 -11 25 -30z m-99 -35 c9 -20 14 -23 25 -14 11 9 20 6 42 -16 l28 -27
-12 -141 c-11 -129 -37 -324 -45 -332 -2 -2 -15 6 -28 18 -49 42 -66 55 -121
97 -32 23 -60 42 -64 42 -3 0 -18 9 -33 19 -16 12 -36 18 -48 15 -12 -3 -24
-1 -27 5 -4 6 -2 11 3 11 19 0 12 16 -14 30 -14 7 -25 19 -25 26 0 18 23 30
28 16 2 -7 8 -10 13 -6 5 3 1 18 -10 33 -14 20 -17 31 -9 44 7 14 13 16 23 7
20 -17 38 -2 32 26 -2 13 2 32 9 41 13 18 15 16 18 -21 2 -26 23 -32 30 -8 5
14 13 18 26 15 30 -8 56 5 42 19 -17 17 -15 35 8 58 11 11 15 22 10 25 -6 4
-10 17 -10 30 0 29 26 24 35 -6 4 -10 12 -19 20 -19 7 0 15 -6 18 -12 2 -7 7
-10 11 -7 4 4 -3 23 -15 43 l-21 37 25 -12 c14 -6 30 -22 36 -36z m-143 -15
c-2 -24 -4 -46 -5 -50 -1 -5 -6 -8 -11 -8 -6 0 -8 11 -5 25 3 14 7 36 10 50 8
40 15 29 11 -17z m940 5 c-11 -11 -19 6 -11 24 8 17 8 17 12 0 3 -10 2 -21 -1
-24z m-3732 12 c-4 -8 -8 -15 -10 -15 -2 0 -4 7 -4 15 0 8 4 15 10 15 5 0 7
-7 4 -15z m111 -5 c3 -5 -1 -10 -9 -10 -9 0 -16 5 -16 10 0 6 4 10 9 10 6 0
13 -4 16 -10z m245 -1 c0 -20 -21 -49 -35 -49 -16 0 -17 41 0 52 15 11 35 10
35 -3z m78 -23 c3 -12 -1 -17 -10 -14 -7 3 -15 13 -16 22 -3 12 1 17 10 14 7
-3 15 -13 16 -22z m42 -41 c0 -8 -4 -15 -10 -15 -5 0 -10 7 -10 15 0 8 5 15
10 15 6 0 10 -7 10 -15z m-220 -25 c0 -5 -2 -10 -4 -10 -3 0 -8 5 -11 10 -3 6
-1 10 4 10 6 0 11 -4 11 -10z m153 -18 c-3 -12 -9 -22 -14 -22 -12 0 -11 7 3
30 15 24 19 21 11 -8z m3011 13 c-4 -8 -10 -15 -15 -15 -4 0 -6 7 -3 15 4 8
10 15 15 15 4 0 6 -7 3 -15z m-28 -93 c-12 -12 -18 8 -10 35 l8 28 4 -28 c2
-16 1 -31 -2 -35z m72 30 c2 -12 -1 -22 -7 -22 -6 0 -11 4 -11 9 0 5 -3 17 -7
27 -4 12 -2 15 8 12 8 -2 15 -14 17 -26z m-388 8 c0 -5 -7 -10 -16 -10 -8 0
-12 5 -9 10 3 6 10 10 16 10 5 0 9 -4 9 -10z m-2620 -40 c0 -5 -4 -10 -10 -10
-5 0 -10 5 -10 10 0 6 5 10 10 10 6 0 10 -4 10 -10z m3063 -72 c7 -25 3 -33
-12 -23 -13 8 -15 45 -2 45 5 0 11 -10 14 -22z m-3464 -43 c7 -7 11 -20 8 -29
-5 -13 -12 -11 -46 11 -22 14 -38 30 -35 35 8 12 55 1 73 -17z m1561 -7 c17
-11 22 -10 29 0 8 14 55 8 78 -10 7 -6 29 -8 48 -6 19 2 35 0 35 -4 0 -4 -4
-8 -10 -8 -5 0 -10 -4 -10 -10 0 -16 40 -12 57 6 9 8 24 13 34 11 11 -3 19 0
19 6 0 6 3 8 6 5 3 -4 1 -16 -6 -27 -9 -17 -8 -21 5 -21 8 0 15 5 15 10 0 25
41 -18 47 -50 l6 -35 9 28 c8 22 5 32 -16 58 -14 17 -26 35 -26 42 0 17 48
-32 95 -98 45 -64 141 -243 133 -250 -2 -3 -27 3 -54 13 -34 12 -61 16 -89 11
-22 -4 -43 -5 -47 -2 -5 2 -8 -1 -8 -6 0 -6 -11 -11 -25 -11 -26 0 -34 -15
-12 -23 6 -3 0 -5 -16 -4 -19 1 -26 6 -22 15 3 10 0 12 -10 9 -8 -4 -17 -2
-19 2 -9 14 -79 20 -121 11 -148 -33 -193 -45 -217 -62 -29 -20 -54 -23 -63
-8 -4 6 -11 7 -17 4 -7 -4 -4 -10 7 -16 16 -9 16 -11 -2 -27 -10 -9 -31 -22
-48 -29 l-30 -12 34 28 c24 20 30 31 22 36 -15 9 14 46 36 46 7 0 13 5 13 10
0 6 7 10 17 10 14 0 14 2 -3 21 -14 16 -15 23 -6 26 6 3 12 20 12 38 0 41 18
55 38 29 14 -18 14 -18 8 -1 -3 10 -9 37 -13 60 -3 23 -15 48 -25 57 -11 9
-20 33 -23 64 l-5 49 25 -23 c20 -19 25 -20 25 -8 0 9 -6 19 -12 21 -7 3 4 6
25 6 24 1 40 7 43 16 7 18 9 18 34 3z m-1472 -10 c-6 -18 -28 -21 -28 -4 0 9
7 16 16 16 9 0 14 -5 12 -12z m-368 -38 c0 -5 -4 -10 -10 -10 -5 0 -10 5 -10
10 0 6 5 10 10 10 6 0 10 -4 10 -10z m240 -24 c0 -61 -32 -60 -45 2 -6 30 -5
32 19 32 23 0 26 -4 26 -34z m2406 18 c-3 -8 -2 -24 4 -33 13 -25 -9 -141 -27
-141 -7 0 -13 5 -13 12 0 6 -6 19 -14 27 -32 35 -28 64 11 108 42 46 48 51 39
27z m-985 -81 c-32 -72 -42 -73 -15 -1 24 64 38 91 42 79 2 -5 -10 -41 -27
-78z m1289 63 c0 -9 -30 -14 -35 -6 -4 6 3 10 14 10 12 0 21 -2 21 -4z m-74
-133 c-3 -82 -2 -123 4 -113 11 17 25 115 21 148 -2 15 3 22 14 22 11 0 15 -6
11 -17 -3 -10 -1 -25 4 -33 8 -12 10 -12 16 3 9 24 23 21 17 -3 -3 -11 -9 -20
-14 -20 -5 0 -2 -11 6 -24 15 -23 15 -26 -4 -45 -11 -11 -16 -23 -11 -26 6 -4
10 -18 11 -33 0 -15 3 -20 5 -12 13 39 38 90 44 90 15 0 18 -13 8 -30 -9 -14
-8 -22 5 -35 23 -22 21 -38 -3 -30 -11 4 -20 2 -20 -4 0 -6 11 -11 25 -11 18
0 25 5 25 19 0 35 20 34 21 -1 1 -18 3 -25 6 -15 2 9 9 17 14 17 5 0 9 14 9
30 0 21 5 30 16 30 13 0 15 -6 10 -27 -17 -68 -19 -86 -7 -79 7 5 11 -4 12
-26 0 -18 4 -42 9 -53 6 -15 9 -7 9 31 1 28 8 59 16 70 14 17 15 12 11 -56 -5
-80 -25 -230 -52 -395 -9 -55 -19 -122 -23 -150 -5 -39 -10 -51 -26 -54 -25
-4 -78 -41 -70 -49 3 -3 20 -6 38 -6 30 -1 32 -3 30 -36 -5 -67 -11 -79 -35
-73 l-23 6 21 -21 c19 -18 20 -26 12 -79 -5 -32 -13 -66 -18 -75 -6 -10 -10
-31 -10 -47 0 -27 -39 -90 -40 -65 0 7 -20 34 -44 60 -39 45 -44 55 -48 111
-4 61 -4 62 19 57 29 -8 30 9 3 38 -21 23 -27 48 -11 48 5 0 12 -6 14 -12 3
-8 6 -6 6 5 1 25 -27 33 -47 13 -14 -14 -15 -19 -3 -37 11 -18 10 -24 -1 -35
-12 -12 -14 -3 -14 55 -1 54 2 68 13 64 7 -3 21 -2 31 2 9 5 28 7 42 5 25 -2
25 -2 6 19 -17 19 -18 23 -4 34 15 12 68 80 83 107 18 31 -29 -12 -86 -78 -27
-31 -37 -20 -14 15 10 15 25 39 34 53 11 16 12 22 3 16 -8 -5 -21 -1 -33 10
-11 10 -19 12 -19 6 0 -7 -3 -12 -8 -12 -4 0 -5 21 -3 46 2 36 0 45 -10 42
-28 -9 -40 -142 -14 -152 12 -4 14 0 9 21 -5 17 -3 24 4 19 6 -3 12 0 15 6 2
7 8 10 12 6 5 -5 0 -24 -11 -43 -18 -33 -34 -46 -34 -26 0 5 -9 11 -21 14 -15
4 -20 12 -17 30 1 13 -3 31 -10 40 -8 9 -12 28 -9 44 4 27 5 27 12 6 9 -27 20
-30 29 -7 11 28 7 46 -9 40 -10 -3 -15 1 -15 13 0 11 5 21 11 23 9 3 9 9 0 25
-6 12 -11 35 -11 52 0 17 -7 34 -16 39 -18 10 -16 43 4 50 7 2 29 -13 49 -33
40 -40 83 -65 110 -65 14 0 12 5 -9 18 -16 9 -28 20 -28 24 0 5 -7 8 -15 8 -9
0 -12 6 -9 15 4 10 0 15 -11 15 -11 0 -15 5 -11 15 3 10 -1 16 -12 17 -25 2
-35 4 -55 13 -16 7 -17 9 -2 25 14 15 14 20 3 27 -7 4 -22 27 -32 50 -20 44
-19 78 3 251 10 81 31 121 31 62 1 -29 2 -32 11 -17 6 10 8 31 4 47 -8 36 5
64 15 34 6 -14 9 -9 14 24 14 77 19 43 12 -85z m-2457 95 c-13 -23 -23 -28
-39 -18 -18 11 1 36 29 36 15 0 17 -4 10 -18z m1188 -25 c-3 -10 -5 -4 -5 12
0 17 2 24 5 18 2 -7 2 -21 0 -30z m-1143 -38 c-9 -25 -20 -45 -25 -45 -4 0
-14 -3 -23 -6 -24 -9 -20 21 7 59 49 70 70 66 41 -8z m2512 28 c-11 -11 -19 6
-11 24 8 17 8 17 12 0 3 -10 2 -21 -1 -24z m97 2 c10 -14 14 -25 9 -25 -5 0
-6 -21 -1 -51 7 -46 -1 -99 -17 -99 -3 0 -5 15 -3 33 4 64 -1 106 -16 121 -14
13 -11 46 4 46 3 0 14 -12 24 -25z m-2773 -13 c0 -13 -12 -22 -22 -16 -10 6
-1 24 13 24 5 0 9 -4 9 -8z m1420 -36 c-1 -20 -2 -20 -15 4 -19 33 -19 46 0
30 8 -7 15 -22 15 -34z m-1387 12 c-6 -7 -13 -20 -16 -28 -3 -9 -6 -3 -6 13
-1 19 4 27 15 27 12 0 14 -4 7 -12z m1169 -52 c-2 -4 5 -5 16 -2 13 5 22 1 26
-10 8 -22 2 -27 -22 -20 -24 8 -47 50 -36 67 5 9 9 8 14 -7 4 -10 5 -23 2 -28z
m-982 5 c0 -12 -20 -25 -27 -18 -7 7 6 27 18 27 5 0 9 -4 9 -9z m-245 -10 c3
-5 1 -12 -5 -16 -5 -3 -10 1 -10 9 0 18 6 21 15 7z m2305 -12 c0 -11 -4 -18
-10 -14 -5 3 -7 12 -3 20 7 21 13 19 13 -6z m-2468 -11 c-7 -7 -12 -8 -12 -2
0 14 12 26 19 19 2 -3 -1 -11 -7 -17z m203 -17 c-3 -6 -11 -8 -17 -5 -6 4 -5
9 3 15 16 10 23 4 14 -10z m155 -10 c0 -5 -11 -11 -25 -13 -26 -5 -29 -1 -19
26 5 12 10 13 25 5 10 -5 19 -14 19 -18z m-434 -8 c-10 -10 -19 5 -10 18 6 11
8 11 12 0 2 -7 1 -15 -2 -18z m2584 12 c0 -8 -7 -15 -15 -15 -9 0 -12 6 -9 15
4 8 10 15 15 15 5 0 9 -7 9 -15z m510 11 c0 -3 -4 -8 -10 -11 -5 -3 -10 -1
-10 4 0 6 5 11 10 11 6 0 10 -2 10 -4z m-2720 -50 c0 -11 -19 -15 -25 -6 -3 5
1 10 9 10 9 0 16 -2 16 -4z m1290 -26 c0 -5 -6 -10 -14 -10 -8 0 -18 5 -21 10
-3 6 3 10 14 10 12 0 21 -4 21 -10z m-1230 -8 c0 -13 -12 -22 -22 -16 -10 6
-1 24 13 24 5 0 9 -4 9 -8z m2029 -89 c-9 -2 -22 -15 -29 -29 -15 -27 -27 -21
-31 16 -6 43 8 52 44 33 22 -12 27 -18 16 -20z m-933 -58 c-15 -8 -33 -15 -40
-15 -16 0 36 28 54 29 8 0 2 -6 -14 -14z m958 -16 c11 -57 6 -106 -13 -130
-16 -20 -28 -23 -91 -23 -79 -1 -98 11 -50 33 23 10 29 18 25 32 -5 15 -1 19
16 19 12 0 28 -8 35 -17 12 -16 13 -10 8 37 -6 54 -5 56 22 67 41 16 41 16 48
-18z m-318 -36 c13 -16 41 -45 61 -65 20 -21 41 -48 47 -60 10 -20 20 -23 75
-26 38 -2 68 2 77 9 28 23 39 -7 42 -116 3 -73 0 -105 -7 -105 -7 0 -14 7 -17
15 -4 8 -15 15 -25 15 -17 0 -18 -3 -9 -21 7 -11 9 -23 7 -26 -9 -9 -66 30
-60 40 3 6 1 7 -6 3 -6 -4 -18 -2 -26 4 -17 14 -20 66 -5 75 6 3 10 20 10 36
0 20 4 29 13 26 6 -2 11 -12 9 -22 -3 -16 -2 -16 21 2 l25 18 -27 17 c-30 20
-48 23 -53 7 -2 -6 -14 -5 -32 5 -16 8 -34 12 -40 9 -5 -4 -31 -5 -57 -4 -31
1 -50 -3 -56 -12 -9 -15 -93 -51 -101 -43 -10 11 31 58 59 68 27 9 37 27 23
41 -4 3 -17 -1 -31 -10 -24 -16 -24 -16 -17 13 4 16 10 36 14 44 4 8 10 32 14
53 9 46 35 50 72 10z m94 -3 c0 -5 -2 -10 -4 -10 -3 0 -8 5 -11 10 -3 6 -1 10
4 10 6 0 11 -4 11 -10z m-1774 -61 c3 -6 1 -15 -6 -19 -7 -4 -9 -13 -6 -19 4
-6 1 -11 -8 -11 -9 0 -13 -6 -10 -14 8 -21 -14 -30 -31 -12 -21 21 -19 34 8
38 14 2 23 11 25 26 4 24 17 29 28 11z m1534 -3 c0 -3 -4 -8 -10 -11 -5 -3
-10 -1 -10 4 0 6 5 11 10 11 6 0 10 -2 10 -4z m-1423 -38 c-3 -8 -6 -5 -6 6
-1 11 2 17 5 13 3 -3 4 -12 1 -19z m1420 13 c10 9 13 8 13 -4 0 -32 -45 -47
-143 -47 -81 0 -96 3 -112 20 -19 21 -11 27 15 10 9 -6 17 -5 21 2 5 7 17 5
39 -6 18 -9 40 -16 48 -16 31 0 82 24 82 39 0 12 3 12 12 3 8 -8 15 -9 25 -1z
m-361 -20 c24 -12 43 -16 50 -10 7 6 17 2 29 -11 19 -21 75 -40 134 -46 18 -2
36 -6 39 -9 9 -9 -105 -6 -130 4 -13 4 -32 5 -43 0 -13 -5 -15 -8 -5 -9 12 0
12 -3 -2 -14 -10 -7 -18 -19 -18 -25 0 -7 8 -10 18 -7 9 3 53 8 97 10 44 3 96
7 115 10 29 5 31 4 10 -3 l-25 -9 22 -7 c14 -4 20 -12 16 -19 -17 -26 -12 -38
13 -32 16 4 24 2 24 -7 0 -8 11 -20 25 -27 29 -16 32 -28 8 -37 -10 -3 -39
-23 -65 -45 -27 -22 -48 -35 -48 -29 0 5 -10 26 -21 46 -15 26 -25 33 -32 26
-6 -6 -19 -11 -29 -11 -15 0 -17 4 -9 18 6 12 4 28 -9 55 -17 34 -17 38 -2 47
16 9 -25 6 -82 -5 -10 -2 -28 6 -40 18 -11 12 -34 23 -49 24 -44 3 -60 21 -52
60 5 26 3 33 -10 33 -23 0 -18 18 8 23 12 2 22 5 23 6 0 0 18 -8 40 -18z
m-451 -11 c18 -12 38 -17 52 -14 14 4 23 2 23 -5 0 -16 -43 -14 -90 5 -22 9
-49 14 -61 11 -16 -4 -18 -3 -8 9 16 20 49 17 84 -6z m702 14 c-3 -3 -12 -4
-19 -1 -8 3 -5 6 6 6 11 1 17 -2 13 -5z m-1647 -24 c0 -5 -4 -10 -10 -10 -5 0
-10 5 -10 10 0 6 5 10 10 10 6 0 10 -4 10 -10z m465 0 c-3 -5 -11 -10 -16 -10
-6 0 -7 5 -4 10 3 6 11 10 16 10 6 0 7 -4 4 -10z m-135 -32 c0 -6 -8 -20 -17
-31 -17 -19 -17 -20 7 -14 32 8 52 -5 48 -29 -2 -13 4 -20 20 -22 12 -2 22
-10 22 -18 0 -17 27 -19 33 -1 9 24 28 -9 30 -54 2 -35 -1 -44 -16 -47 -16 -3
-18 1 -12 27 8 37 -11 42 -37 12 -13 -16 -25 -19 -54 -14 -33 5 -36 4 -30 -15
5 -14 1 -25 -15 -35 -22 -16 -18 -40 5 -31 28 11 26 -16 -1 -30 -21 -10 -34
-11 -47 -4 -12 7 -21 7 -29 -1 -17 -17 -35 -13 -67 16 -33 29 -34 32 -21 51 7
12 12 12 30 1 11 -8 21 -19 21 -26 0 -25 20 -22 36 7 10 16 26 30 36 30 11 0
18 7 18 19 0 30 -20 36 -36 12 -20 -27 -54 -28 -54 -1 0 23 4 24 30 10 20 -11
34 9 24 35 -5 11 1 15 19 15 18 0 27 7 31 25 4 14 13 25 22 25 23 0 11 24 -14
28 -18 3 -21 8 -16 30 4 15 9 30 11 35 7 11 23 8 23 -5z m165 -21 c4 -13 5
-43 3 -68 -3 -41 -4 -43 -15 -19 -6 14 -14 44 -18 68 -5 34 -4 42 9 42 9 0 18
-10 21 -23z m1985 -41 c0 -14 5 -28 11 -31 7 -5 5 -15 -5 -31 -9 -13 -16 -30
-16 -38 0 -7 -7 -17 -16 -20 -14 -5 -15 -2 -9 21 4 16 8 46 10 68 3 53 3 55
15 55 6 0 10 -11 10 -24z m-2055 3 c10 -15 -1 -23 -20 -15 -9 3 -13 10 -10 16
8 13 22 13 30 -1z m481 -26 c-11 -11 -19 6 -11 24 8 17 8 17 12 0 3 -10 2 -21
-1 -24z m44 7 c-19 -13 -30 -13 -30 0 0 6 10 10 23 10 18 0 19 -2 7 -10z
m-750 -30 c22 -31 20 -50 -7 -50 -9 0 -13 6 -9 15 3 8 0 15 -7 15 -22 0 -38
16 -31 33 9 26 30 20 54 -13z m646 -37 c-7 -7 -26 7 -26 19 0 6 6 6 15 -2 9
-7 13 -15 11 -17z m224 1 c0 -8 -5 -12 -10 -9 -6 4 -8 11 -5 16 9 14 15 11 15
-7z m-150 -36 c0 -6 7 -20 17 -30 9 -10 11 -18 6 -18 -14 0 -29 19 -38 49 -5
16 -4 21 4 17 6 -4 11 -12 11 -18z m-53 -10 c-3 -8 -6 -5 -6 6 -1 11 2 17 5
13 3 -3 4 -12 1 -19z m123 -9 c0 -5 -4 -9 -10 -9 -5 0 -10 7 -10 16 0 8 5 12
10 9 6 -3 10 -10 10 -16z m-935 -19 c-4 -6 -1 -18 6 -26 15 -19 9 -25 -19 -17
-26 6 -29 28 -4 42 22 13 25 13 17 1z m979 -19 c8 -12 -19 -22 -30 -11 -5 4
-18 10 -29 13 -11 3 -4 5 17 6 20 0 39 -3 42 -8z m-1207 -35 c-4 -9 -11 -16
-17 -16 -11 0 -14 33 -3 44 11 10 26 -11 20 -28z m603 -10 c-7 -9 -18 -16 -26
-16 -22 0 -27 20 -8 41 16 17 19 18 32 5 13 -12 13 -18 2 -30z m635 34 c3 -5
1 -10 -4 -10 -6 0 -11 5 -11 10 0 6 2 10 4 10 3 0 8 -4 11 -10z m-62 -48 c18
-9 42 -12 64 -9 24 4 33 2 30 -6 -3 -7 -10 -11 -16 -9 -6 1 -11 -2 -11 -7 0
-5 -11 -12 -25 -15 -29 -7 -79 15 -89 40 -4 9 -9 14 -13 11 -7 -8 -33 11 -33
23 0 9 52 -6 93 -28z m-1086 -6 c-4 -13 -47 -21 -47 -9 0 5 5 14 11 20 14 14
41 5 36 -11z m2111 17 c-10 -2 -18 -10 -18 -16 0 -7 -9 -18 -20 -25 -12 -7
-20 -8 -20 -2 0 5 5 10 11 10 5 0 7 5 3 11 -8 14 14 29 41 28 17 -1 17 -2 3
-6z m-82 -18 c10 -8 14 -15 9 -15 -6 0 -15 4 -20 9 -6 5 -23 11 -40 14 l-30 4
31 2 c16 0 39 -6 50 -14z m-1850 -33 c-4 -3 -12 0 -19 7 -9 9 -9 14 3 21 11 7
16 5 18 -6 2 -9 1 -18 -2 -22z m-336 20 c0 -13 -12 -22 -22 -16 -10 6 -1 24
13 24 5 0 9 -4 9 -8z m434 -18 c8 -3 12 -12 9 -20 -7 -19 -16 -18 -31 6 -12
20 -6 25 22 14z m-68 -28 c-4 -15 0 -28 9 -36 8 -7 15 -16 15 -21 0 -16 -26
-9 -45 11 -17 18 -17 21 -1 45 21 32 30 32 22 1z m-136 -1 c0 -8 -7 -15 -15
-15 -8 0 -15 7 -15 15 0 8 7 15 15 15 8 0 15 -7 15 -15z m60 -40 c0 -7 -9 -20
-19 -29 -11 -10 -17 -23 -15 -30 3 -7 -1 -18 -9 -24 -11 -10 -14 -3 -16 38 -1
28 3 50 8 50 5 0 12 10 15 23 6 22 7 22 21 3 8 -11 15 -25 15 -31z m341 26
c27 -22 25 -28 -11 -31 -49 -4 -71 0 -77 16 -13 35 51 46 88 15z m-161 -40 c0
-38 22 -63 35 -41 10 15 36 12 58 -7 11 -10 17 -12 12 -4 -8 14 13 34 27 25
14 -9 9 -44 -7 -50 -8 -4 -15 -12 -15 -20 0 -23 -57 -17 -74 7 l-15 22 -7 -28
c-4 -16 -2 -30 4 -34 6 -3 13 -18 17 -33 6 -24 3 -29 -20 -38 -38 -14 -39 -14
-64 30 -12 22 -26 40 -31 40 -5 0 -10 15 -12 33 -2 26 -7 32 -25 31 -13 0 -23
3 -23 7 0 13 88 38 111 32 l22 -6 -19 26 c-10 15 -26 27 -34 28 -12 1 23 13
53 18 4 0 7 -17 7 -38z m45 -1 c3 -5 -1 -10 -9 -10 -9 0 -16 5 -16 10 0 6 4
10 9 10 6 0 13 -4 16 -10z m1695 0 c0 -5 -5 -10 -11 -10 -5 0 -7 5 -4 10 3 6
8 10 11 10 2 0 4 -4 4 -10z m120 -25 c10 -12 10 -15 -4 -15 -9 0 -16 7 -16 15
0 8 2 15 4 15 2 0 9 -7 16 -15z m-2360 -4 c0 -12 -20 -25 -27 -18 -7 7 6 27
18 27 5 0 9 -4 9 -9z m2147 -11 c-40 -22 -72 -26 -62 -9 9 14 44 28 75 28 22
1 20 -1 -13 -19z m-2107 -14 c0 -3 -4 -8 -10 -11 -5 -3 -10 -1 -10 4 0 6 5 11
10 11 6 0 10 -2 10 -4z m37 -2 c-3 -3 -12 -4 -19 -1 -8 3 -5 6 6 6 11 1 17 -2
13 -5z m97 -23 c3 -5 0 -14 -8 -20 -10 -9 -15 -8 -19 3 -9 22 15 37 27 17z
m496 -11 c16 -16 18 -24 10 -40 -6 -11 -8 -25 -5 -30 3 -6 1 -10 -4 -10 -6 0
-11 6 -11 13 -1 7 -6 5 -14 -6 -9 -12 -16 -14 -21 -8 -3 6 -1 11 4 11 6 0 11
5 11 10 0 6 -7 10 -15 10 -8 0 -15 6 -15 14 0 8 7 16 15 20 8 3 15 12 15 21 0
20 6 19 30 -5z m2077 -22 c-3 -7 -5 -2 -5 12 0 14 2 19 5 13 2 -7 2 -19 0 -25z
m-2395 -28 c7 -11 18 -20 25 -20 14 0 43 -51 43 -76 0 -10 -5 -14 -15 -10 -8
3 -15 1 -15 -4 0 -6 -10 -10 -22 -10 l-23 0 23 18 c23 18 23 18 5 50 -16 28
-37 38 -67 33 -15 -3 -46 10 -46 19 0 5 15 11 33 13 17 2 35 5 39 5 4 1 13 -7
20 -18z m-202 -15 c0 -8 -4 -15 -10 -15 -5 0 -10 7 -10 15 0 8 5 15 10 15 6 0
10 -7 10 -15z m2650 -2 c24 -21 26 -33 5 -33 -8 0 -15 5 -15 10 0 6 -7 10 -15
10 -8 0 -15 7 -15 15 0 20 15 19 40 -2z m-2510 -38 c0 -21 -5 -25 -30 -25 -37
0 -39 15 -2 34 15 8 28 15 30 16 1 0 2 -11 2 -25z m350 -25 c14 0 20 -6 20
-22 -1 -25 -32 -68 -49 -68 -16 0 -14 15 4 30 19 16 19 30 1 30 -21 0 -28 15
-20 46 7 27 7 27 15 6 5 -13 17 -22 29 -22z m705 0 c-3 -5 -11 -10 -16 -10 -6
0 -7 5 -4 10 3 6 11 10 16 10 6 0 7 -4 4 -10z m-839 -25 c-23 -17 -36 -19 -36
-6 0 5 8 12 18 14 32 9 37 6 18 -8z m-66 -45 c0 -5 -4 -10 -10 -10 -5 0 -10 5
-10 10 0 6 5 10 10 10 6 0 10 -4 10 -10z m1933 -30 c3 -11 0 -23 -6 -27 -7 -3
-9 -3 -5 2 4 4 1 17 -7 29 -8 11 -15 24 -15 29 0 16 28 -12 33 -33z m302 30
c-3 -5 -15 -10 -25 -10 -10 0 -22 -5 -25 -10 -4 -6 -11 -7 -18 -3 -6 4 3 12
24 19 43 16 52 17 44 4z m60 -13 c0 -26 -20 -25 -23 2 -3 16 1 22 10 19 7 -3
13 -12 13 -21z m-1493 -15 c-26 -8 -2 -47 33 -53 17 -4 18 -5 2 -21 -9 -9 -17
-19 -17 -22 0 -11 36 -6 48 6 6 6 14 9 17 6 4 -3 -12 -14 -34 -24 -22 -11 -43
-27 -47 -37 -4 -12 -12 -16 -24 -12 -10 3 -42 -3 -71 -14 -29 -11 -54 -20 -55
-18 -1 1 2 26 5 55 5 34 14 57 27 67 31 23 43 17 50 -25 4 -22 10 -40 14 -40
5 0 16 -3 24 -6 12 -5 15 -2 9 11 -4 12 0 23 13 33 17 13 17 14 1 9 -13 -5
-23 2 -36 25 -23 36 -20 48 17 70 19 12 28 13 31 5 2 -6 -1 -13 -7 -15z m1558
8 c0 -5 -2 -10 -4 -10 -3 0 -8 5 -11 10 -3 6 -1 10 4 10 6 0 11 -4 11 -10z
m-2265 -9 c7 -12 -12 -24 -25 -16 -11 7 -4 25 10 25 5 0 11 -4 15 -9z m46 -6
c-1 -15 -24 -12 -29 3 -3 9 2 13 12 10 10 -1 17 -7 17 -13z m2300 -6 c16 -11
29 -28 29 -38 0 -10 10 -30 21 -45 14 -18 18 -31 12 -37 -7 -7 -21 4 -42 32
-17 24 -31 47 -31 52 0 4 -7 15 -15 23 -15 16 -20 34 -9 34 3 0 19 -9 35 -21z
m-2401 -10 c0 -5 -4 -9 -10 -9 -5 0 -10 7 -10 16 0 8 5 12 10 9 6 -3 10 -10
10 -16z m2350 -20 c0 -5 -4 -9 -10 -9 -5 0 -10 7 -10 16 0 8 5 12 10 9 6 -3
10 -10 10 -16z m-2289 -2 c-1 -12 -15 -9 -19 4 -3 6 1 10 8 8 6 -3 11 -8 11
-12z m-296 -6 c3 -5 1 -12 -5 -16 -5 -3 -10 1 -10 9 0 18 6 21 15 7z m375 -10
c0 -6 -4 -13 -10 -16 -5 -3 -10 1 -10 9 0 9 5 16 10 16 6 0 10 -4 10 -9z
m-323 -18 c18 -49 78 -57 99 -15 17 35 27 40 20 8 -4 -15 -4 -47 0 -71 5 -34
13 -48 42 -69 36 -25 58 -26 48 0 -3 8 -1 14 5 14 6 0 7 5 4 10 -4 6 -15 8
-26 5 -20 -7 -28 18 -9 30 6 4 8 11 5 16 -6 9 17 39 30 39 3 0 5 -8 3 -17 -2
-12 5 -19 21 -21 18 -3 22 0 18 12 -8 21 8 29 23 11 14 -17 15 -14 -45 -124
-30 -54 -84 -132 -105 -151 -3 -3 -25 -36 -50 -75 -24 -38 -53 -81 -63 -95
-85 -115 -143 -201 -159 -237 -21 -48 -42 -58 -34 -15 3 15 10 61 17 102 7 41
16 80 21 87 6 7 7 16 4 21 -9 15 14 156 30 189 14 28 15 37 4 64 -12 29 -12
33 7 49 12 9 23 25 26 36 3 14 5 12 6 -8 0 -16 6 -28 11 -28 6 0 10 -9 10 -20
0 -11 5 -20 11 -20 8 0 9 13 5 41 -6 35 -4 40 9 35 9 -3 18 1 22 10 5 13 9 12
27 -8 12 -12 25 -31 29 -40 8 -22 27 -24 27 -3 0 8 -4 15 -10 15 -5 0 -10 6
-10 14 0 8 -10 23 -23 33 -21 17 -57 66 -57 78 0 7 61 -35 73 -50 5 -5 5 1 2
15 -7 27 -71 90 -88 87 -6 -1 -12 13 -14 31 -2 23 1 32 12 32 9 0 19 -8 22
-17z m-261 -19 c-3 -7 0 -19 7 -27 7 -7 18 -23 25 -36 12 -20 10 -25 -17 -54
-23 -23 -31 -27 -31 -14 0 9 -4 17 -10 17 -17 0 -11 38 8 49 16 9 16 11 -2 24
-13 10 -15 16 -8 21 7 4 12 16 12 27 0 12 4 17 11 14 6 -4 8 -13 5 -21z m81
20 c-3 -3 -12 -4 -19 -1 -8 3 -5 6 6 6 11 1 17 -2 13 -5z m28 -4 c3 -5 1 -10
-4 -10 -6 0 -11 5 -11 10 0 6 2 10 4 10 3 0 8 -4 11 -10z m315 -24 c0 -11 -19
-15 -25 -6 -3 5 1 10 9 10 9 0 16 -2 16 -4z m2740 -16 c0 -5 -6 -10 -14 -10
-8 0 -18 5 -21 10 -3 6 3 10 14 10 12 0 21 -4 21 -10z m-3218 -46 c-24 -17
-39 -14 -27 5 3 6 16 11 28 11 l21 0 -22 -16z m197 -68 c2 -68 -3 -78 -37 -69
-17 4 -20 9 -12 23 7 13 6 20 -3 23 -9 3 -7 9 6 24 9 11 17 29 17 40 0 11 3
23 6 26 14 14 21 -5 23 -67z m3010 35 c23 -15 4 -51 -27 -50 -15 0 -21 3 -14
6 15 6 16 33 1 33 -5 0 -7 5 -4 10 8 12 25 13 44 1z m-2929 -15 c0 -3 -4 -8
-10 -11 -5 -3 -10 -1 -10 4 0 6 5 11 10 11 6 0 10 -2 10 -4z m2805 -74 c11 -2
25 -8 30 -12 6 -4 29 -11 52 -15 44 -7 59 -18 48 -34 -6 -10 -55 6 -116 39
-20 11 -44 20 -53 20 -9 0 -16 5 -16 11 0 7 7 8 18 4 9 -4 26 -10 37 -13z
m298 -91 c3 -11 -1 -22 -9 -25 -17 -6 -7 -36 12 -36 8 0 14 -5 14 -11 0 -6 -3
-9 -7 -7 -5 2 -30 15 -58 28 l-50 23 33 9 c18 5 35 15 39 23 7 21 20 19 26 -4z
m62 -11 c17 -7 14 -9 -13 -9 -20 -1 -31 3 -27 9 7 12 13 12 40 0z m17 -160 c5
0 8 -6 8 -12 -1 -7 -12 1 -25 17 -14 17 -25 35 -25 40 0 6 8 -2 18 -17 9 -16
20 -28 24 -28z m253 18 c-19 -11 -30 -5 -21 11 4 6 14 7 22 4 15 -5 14 -7 -1
-15z m121 9 c17 6 19 -13 2 -23 -6 -4 -14 -2 -16 4 -2 7 -11 12 -20 12 -15 0
-15 2 -2 10 9 5 16 6 18 0 2 -5 10 -6 18 -3z m-218 -27 c12 0 13 -3 5 -11 -8
-8 -17 -7 -35 6 -16 12 -18 16 -5 11 10 -3 26 -6 35 -6z m-3158 -4 c0 -3 -4
-8 -10 -11 -5 -3 -10 -1 -10 4 0 6 5 11 10 11 6 0 10 -2 10 -4z m3290 -20 c0
-8 -8 -22 -17 -31 -16 -16 -17 -16 -30 1 -17 23 -17 38 0 31 8 -3 20 -1 28 4
18 12 19 11 19 -5z m-260 -41 c0 -5 -5 -3 -10 5 -5 8 -10 20 -10 25 0 6 5 3
10 -5 5 -8 10 -19 10 -25z m323 1 c10 4 17 -2 22 -18 4 -13 9 -31 12 -42 3
-12 1 -17 -8 -14 -8 3 -14 13 -14 23 0 12 -9 21 -25 25 -14 3 -27 15 -29 25
-3 16 -1 17 12 7 8 -7 21 -10 30 -6z m-283 -22 c0 -8 -5 -12 -10 -9 -6 4 -8
11 -5 16 9 14 15 11 15 -7z m436 -18 c3 -8 12 -12 20 -9 9 3 14 -1 14 -12 0
-11 5 -15 15 -11 17 6 21 -9 4 -20 -6 -3 -16 -1 -22 5 -6 6 -24 11 -39 11 -18
0 -28 5 -28 15 0 8 6 15 13 15 8 0 7 4 -3 10 -13 8 -12 10 3 10 10 0 20 -6 23
-14z m-376 -71 c0 -8 7 -15 15 -15 9 0 18 7 21 15 4 8 12 15 19 15 7 0 18 -7
25 -15 9 -10 9 -15 1 -15 -6 0 -11 -7 -11 -15 0 -8 7 -15 15 -15 9 0 15 9 15
22 0 20 1 21 20 3 24 -21 26 -62 5 -101 -13 -25 -20 -26 -16 -1 1 4 -8 17 -19
29 -11 12 -21 19 -21 15 -1 -4 -2 -11 -3 -16 -3 -24 -15 -19 -30 14 -9 19 -21
35 -25 35 -5 0 -11 8 -15 18 -3 9 -9 23 -12 30 -3 6 -1 12 5 12 6 0 11 -7 11
-15z m283 -46 c10 -11 16 -27 13 -35 -3 -8 -1 -14 4 -14 6 0 10 -4 10 -10 0
-5 -7 -7 -15 -4 -8 4 -15 13 -15 20 0 8 -13 17 -30 21 -33 6 -36 13 -18 31 17
17 31 15 51 -9z m-40 -53 c18 0 25 -26 6 -26 -6 0 -18 -9 -28 -21 -14 -17 -21
-19 -43 -10 -19 7 -26 17 -25 33 1 30 16 40 47 32 14 -4 33 -7 43 -8z m197
-81 c0 -8 -4 -15 -10 -15 -5 0 -10 7 -10 15 0 8 5 15 10 15 6 0 10 -7 10 -15z
m-317 -30 c-3 -9 -8 -14 -10 -11 -3 3 -2 9 2 15 9 16 15 13 8 -4z m237 -20 c0
-8 -2 -15 -4 -15 -2 0 -6 7 -10 15 -3 8 -1 15 4 15 6 0 10 -7 10 -15z m-210
-42 c-1 -24 -2 -26 -11 -10 -5 9 -7 22 -4 27 10 17 15 11 15 -17z m180 -18 c0
-8 -4 -15 -10 -15 -5 0 -10 7 -10 15 0 8 5 15 10 15 6 0 10 -7 10 -15z m92
-27 c-7 -7 -12 -8 -12 -2 0 14 12 26 19 19 2 -3 -1 -11 -7 -17z m-52 -217 c0
-18 -18 -21 -30 -6 -10 13 -9 15 9 15 11 0 21 -4 21 -9z m-104 -48 c-7 -7 -26
7 -26 19 0 6 6 6 15 -2 9 -7 13 -15 11 -17z m-3606 -103 c0 -5 -4 -10 -10 -10
-5 0 -10 5 -10 10 0 6 5 10 10 10 6 0 10 -4 10 -10z m3675 -320 c3 -5 1 -10
-4 -10 -6 0 -11 5 -11 10 0 6 2 10 4 10 3 0 8 -4 11 -10z m-3647 -176 c28 -3
52 -10 52 -15 0 -13 -127 -11 -151 1 -16 9 -19 7 -19 -15 0 -30 -7 -31 -40 -5
-27 21 -50 26 -50 11 0 -13 -43 -10 -52 3 -4 6 -2 16 4 23 11 14 144 13 256
-3z m-245 -213 c5 -22 -1 -33 -14 -25 -12 7 -12 44 0 44 5 0 11 -9 14 -19z
m12 -70 c3 -5 1 -12 -5 -16 -5 -3 -10 1 -10 9 0 18 6 21 15 7z m1259 -46 c10
-7 15 -19 11 -25 -5 -8 -13 -6 -26 6 -33 30 -21 46 15 19z m109 8 c-7 -2 -19
-2 -25 0 -7 3 -2 5 12 5 14 0 19 -2 13 -5z m97 -2 c0 -4 -11 -6 -25 -3 -14 2
-25 6 -25 8 0 2 11 4 25 4 14 0 25 -4 25 -9z m100 -1 c-8 -5 -21 -10 -29 -10
-8 0 -20 -8 -27 -17 -7 -10 -16 -14 -21 -10 -11 12 38 47 67 47 20 0 22 -2 10
-10z m-1224 -57 c-11 -11 -19 6 -11 24 8 17 8 17 12 0 3 -10 2 -21 -1 -24z
m994 27 c0 -5 -7 -10 -16 -10 -8 0 -12 5 -9 10 3 6 10 10 16 10 5 0 9 -4 9
-10z m-1240 -91 c0 -5 -4 -9 -10 -9 -5 0 -10 7 -10 16 0 8 5 12 10 9 6 -3 10
-10 10 -16z m255 -8 c3 -5 1 -12 -5 -16 -5 -3 -10 1 -10 9 0 18 6 21 15 7z
m-69 -48 c-10 -10 -19 5 -10 18 6 11 8 11 12 0 2 -7 1 -15 -2 -18z m-133 0
c-13 -2 -35 -2 -50 0 -16 2 -5 4 22 4 28 0 40 -2 28 -4z m187 3 c0 -3 -4 -8
-10 -11 -5 -3 -10 -1 -10 4 0 6 5 11 10 11 6 0 10 -2 10 -4z m-20 -41 c-14
-17 -30 -20 -30 -6 0 5 8 12 18 14 9 3 19 5 21 6 2 0 -2 -6 -9 -14z m-66 -22
c-13 -52 -23 -56 -41 -16 -18 39 -17 43 17 43 28 0 30 -2 24 -27z m146 -33 c0
-5 -4 -10 -10 -10 -5 0 -10 5 -10 10 0 6 5 10 10 10 6 0 10 -4 10 -10z m80
-21 c0 -11 -4 -17 -10 -14 -5 3 -10 13 -10 21 0 8 5 14 10 14 6 0 10 -9 10
-21z"/>
<path d="M3240 4449 c0 -8 7 -24 15 -35 19 -25 19 -14 0 22 -8 16 -15 22 -15
13z"/>
<path d="M3110 4375 c0 -8 5 -15 10 -15 6 0 10 7 10 15 0 8 -4 15 -10 15 -5 0
-10 -7 -10 -15z"/>
<path d="M2970 4295 c0 -9 9 -15 21 -15 18 0 19 2 9 15 -7 8 -16 15 -21 15 -5
0 -9 -7 -9 -15z"/>
<path d="M1940 4170 c0 -5 5 -10 10 -10 6 0 10 5 10 10 0 6 -4 10 -10 10 -5 0
-10 -4 -10 -10z"/>
<path d="M1860 4160 c0 -5 5 -10 11 -10 5 0 7 5 4 10 -3 6 -8 10 -11 10 -2 0
-4 -4 -4 -10z"/>
<path d="M2120 4110 c0 -5 6 -10 14 -10 8 0 18 5 21 10 3 6 -3 10 -14 10 -12
0 -21 -4 -21 -10z"/>
<path d="M1816 4013 c-11 -11 -6 -23 9 -23 8 0 15 4 15 9 0 13 -16 22 -24 14z"/>
<path d="M3078 3794 c-8 -7 13 -44 24 -44 12 0 10 14 -5 34 -7 9 -16 14 -19
10z"/>
<path d="M2989 3400 c13 -11 28 -20 33 -20 6 0 -1 9 -15 20 -33 26 -49 26 -18
0z"/>
<path d="M3030 3046 c0 -2 7 -6 15 -10 8 -3 15 -1 15 4 0 6 -7 10 -15 10 -8 0
-15 -2 -15 -4z"/>
<path d="M2501 3423 c-1 -18 4 -33 9 -33 6 0 15 -10 20 -22 8 -22 9 -22 9 5 1
15 -3 27 -8 27 -5 0 -14 12 -19 28 l-10 27 -1 -32z"/>
<path d="M2430 3365 c-11 -13 -10 -14 4 -9 9 3 16 10 16 15 0 13 -6 11 -20 -6z"/>
<path d="M2470 3360 c0 -25 16 -44 25 -30 4 7 0 19 -9 28 -13 14 -16 14 -16 2z"/>
<path d="M702 3345 c-11 -13 -9 -15 8 -15 11 0 20 7 20 15 0 19 -11 19 -28 0z"/>
<path d="M535 2940 c3 -5 8 -10 11 -10 2 0 4 5 4 10 0 6 -5 10 -11 10 -5 0 -7
-4 -4 -10z"/>
<path d="M3750 1931 c0 -5 5 -13 10 -16 6 -3 10 -2 10 4 0 5 -4 13 -10 16 -5
3 -10 2 -10 -4z"/>
<path d="M162 4775 c-22 -44 -15 -62 10 -27 7 10 22 22 33 27 19 8 19 8 2 12
-11 3 -16 11 -13 19 13 33 -11 10 -32 -31z"/>
<path d="M337 4708 c10 -53 52 -102 52 -60 -1 9 2 27 6 40 6 18 4 21 -8 16
-10 -3 -20 2 -27 15 -17 32 -30 25 -23 -11z"/>
<path d="M431 4624 c-13 -13 -20 -24 -15 -24 14 0 54 30 54 41 0 14 -13 9 -39
-17z"/>
<path d="M487 4576 c10 -13 21 -22 25 -20 11 7 -15 44 -30 44 -9 0 -8 -7 5
-24z"/>
<path d="M4036 4433 c-3 -4 -6 -18 -5 -32 0 -16 3 -20 6 -11 4 8 13 20 21 26
13 9 13 12 -1 17 -8 3 -18 3 -21 0z"/>
<path d="M4090 4338 c0 -32 3 -39 10 -28 13 20 13 70 0 70 -5 0 -10 -19 -10
-42z"/>
<path d="M4137 4283 c-3 -5 -1 -26 3 -48 l8 -40 1 48 c1 45 -2 56 -12 40z"/>
<path d="M165 2400 c3 -5 8 -10 11 -10 2 0 4 5 4 10 0 6 -5 10 -11 10 -5 0 -7
-4 -4 -10z"/>
<path d="M3690 2375 c-16 -19 0 -26 52 -22 44 3 63 17 24 17 -15 0 -36 4 -46
10 -13 7 -21 6 -30 -5z"/>
<path d="M146 2352 c-5 -9 -3 -23 5 -38 13 -24 29 -32 29 -14 0 6 -4 10 -9 10
-5 0 -11 12 -13 28 -2 19 -5 23 -12 14z"/>
<path d="M3810 2330 c12 -23 15 -24 41 -10 30 16 22 30 -16 30 -33 0 -35 -2
-25 -20z"/>
<path d="M3900 2299 c0 -5 5 -7 10 -4 6 3 10 8 10 11 0 2 -4 4 -10 4 -5 0 -10
-5 -10 -11z"/>
<path d="M130 2279 c-4 -46 -5 -130 -2 -134 11 -10 32 19 42 56 8 29 16 39 30
39 20 0 27 14 12 24 -10 6 -82 19 -82 15z"/>
<path d="M3961 2261 c-24 -15 -3 -32 24 -19 13 6 22 15 19 19 -7 11 -25 11
-43 0z"/>
<path d="M4084 2227 c3 -10 6 -20 6 -23 0 -2 14 -10 30 -19 38 -19 40 -2 3 22
-16 10 -32 22 -36 28 -5 6 -6 2 -3 -8z"/>
<path d="M163 2110 c3 -11 1 -20 -4 -20 -5 0 -9 -8 -9 -17 0 -15 2 -14 15 3
17 23 20 54 4 54 -6 0 -9 -9 -6 -20z"/>
<path d="M4127 2089 c13 -22 19 -26 21 -14 4 17 -15 45 -30 45 -5 0 -1 -14 9
-31z"/>
<path d="M1280 540 c0 -5 5 -10 11 -10 5 0 7 5 4 10 -3 6 -8 10 -11 10 -2 0
-4 -4 -4 -10z"/>
<path d="M646 178 c-8 -13 -22 -39 -31 -58 -8 -19 -19 -42 -24 -50 -18 -33
-31 -60 -31 -65 0 -2 115 -4 255 -4 219 0 253 2 248 14 -3 8 -9 15 -13 15 -4
0 -19 11 -34 25 -14 13 -26 21 -26 18 0 -3 -6 -1 -13 5 -16 14 -85 18 -112 7
-19 -7 -19 -7 -1 7 15 12 16 17 6 23 -8 5 -18 2 -25 -8 -10 -15 -14 -15 -31
-2 -26 19 -63 19 -86 -2 -22 -20 -30 -13 -30 24 -1 49 -8 73 -23 73 -8 0 -21
-10 -29 -22z m142 -90 c-6 -18 -28 -21 -28 -4 0 9 7 16 16 16 9 0 14 -5 12
-12z"/>
<path d="M3362 161 c9 -15 9 -23 0 -33 -14 -17 -5 -58 13 -58 8 0 27 -16 43
-36 l30 -36 21 21 c23 23 29 40 7 22 -15 -13 -26 4 -26 41 0 23 -23 48 -44 48
-9 0 -16 5 -16 11 0 11 -24 39 -34 39 -4 0 -1 -9 6 -19z"/>
<path d="M735 160 c-9 -15 -1 -23 21 -18 15 3 16 4 1 16 -11 9 -17 10 -22 2z"/>
<path d="M3410 161 c0 -8 41 -23 47 -17 2 1 -8 8 -22 14 -14 6 -25 8 -25 3z"/>
<path d="M3475 120 c3 -5 8 -10 11 -10 2 0 4 5 4 10 0 6 -5 10 -11 10 -5 0 -7
-4 -4 -10z"/>
<path d="M46 81 c-4 -6 -16 -11 -27 -11 -15 0 -19 -7 -19 -35 l0 -35 233 0
232 0 2 35 c1 31 -1 35 -23 35 -14 0 -23 -4 -20 -8 3 -5 -18 -7 -47 -4 -29 3
-79 5 -111 4 -33 -1 -65 3 -72 9 -18 15 -140 24 -148 10z m324 -51 c0 -5 -4
-10 -10 -10 -5 0 -10 5 -10 10 0 6 5 10 10 10 6 0 10 -4 10 -10z"/>
<path d="M3495 81 c-3 -5 -1 -12 5 -16 5 -3 10 1 10 9 0 18 -6 21 -15 7z"/>
<path d="M483 48 c2 -7 10 -13 18 -13 8 0 13 -8 13 -18 -3 -26 13 -20 18 8 6
30 2 35 -29 35 -15 0 -23 -5 -20 -12z"/>
</g>
</svg>
